<svg width="61" height="61" viewBox="0 0 61 61" fill="none" xmlns="http://www.w3.org/2000/svg">
<circle cx="30.5" cy="30.5" r="30.5" fill="black"/>
<g clip-path="url(#clip0)">
<path d="M41.2083 24.6567C40.4792 24.2388 39.5417 24.2388 38.7083 24.6567L32.875 28.1045L28.9167 30.2985L23.1875 33.7463C22.4583 34.1642 21.5208 34.1642 20.6875 33.7463L16.2083 31.0298C15.4792 30.6119 14.9583 29.7761 14.9583 28.8358V23.6119C14.9583 22.7761 15.375 21.9403 16.2083 21.4179L20.6875 18.806C21.4167 18.388 22.3542 18.388 23.1875 18.806L27.6667 21.5224C28.3958 21.9403 28.9167 22.7761 28.9167 23.7164V27.1642L32.875 24.8657V21.3134C32.875 20.4776 32.4583 19.6418 31.625 19.1194L23.2917 14.2089C22.5625 13.791 21.625 13.791 20.7917 14.2089L12.25 19.2239C11.4167 19.6418 11 20.4776 11 21.3134V31.1343C11 31.9701 11.4167 32.806 12.25 33.3283L20.6875 38.2388C21.4167 38.6567 22.3542 38.6567 23.1875 38.2388L28.9167 34.8955L32.875 32.597L38.6042 29.2537C39.3333 28.8358 40.2708 28.8358 41.1042 29.2537L45.5833 31.8657C46.3125 32.2836 46.8333 33.1194 46.8333 34.0597V39.2836C46.8333 40.1194 46.4167 40.9552 45.5833 41.4776L41.2083 44.0895C40.4792 44.5075 39.5417 44.5075 38.7083 44.0895L34.2292 41.4776C33.5 41.0597 32.9792 40.2239 32.9792 39.2836V35.9403L29.0208 38.2388V41.6866C29.0208 42.5224 29.4375 43.3582 30.2708 43.8806L38.7083 48.791C39.4375 49.2089 40.375 49.2089 41.2083 48.791L49.6458 43.8806C50.375 43.4627 50.8958 42.6269 50.8958 41.6866V31.7612C50.8958 30.9254 50.4792 30.0895 49.6458 29.5672L41.2083 24.6567Z" fill="#8247E5"/>
</g>
<defs>
<clipPath id="clip0">
<rect width="40" height="35" fill="white" transform="translate(11 14)"/>
</clipPath>
</defs>
</svg>
