<svg width="63" height="63" viewBox="0 0 63 63" fill="none" xmlns="http://www.w3.org/2000/svg">
<path d="M44.4969 23.4989C44.2764 23.7194 43.9803 23.8454 43.6716 23.8454H14.4081C13.3749 23.8454 12.852 22.5854 13.5702 21.8357L18.3708 16.865C18.5913 16.6382 18.8937 16.5059 19.2087 16.5059H48.5793C49.6188 16.5059 50.1417 17.7785 49.4046 18.5282L44.4969 23.4989ZM44.4969 45.7127C44.2764 45.9269 43.9803 46.0529 43.6716 46.0529H14.4081C13.3749 46.0529 12.852 44.8244 13.5702 44.0936L18.3708 39.2426C18.5913 39.0221 18.8937 38.8961 19.2087 38.8961H48.5793C49.6188 38.8961 50.1417 40.1372 49.4046 40.868L44.4969 45.7127ZM43.6716 27.701C43.9803 27.701 44.2764 27.8207 44.4969 28.0412L49.4046 32.8922C50.1417 33.6167 49.6188 34.8641 48.5793 34.8641H19.2087C18.8937 34.8641 18.5913 34.7381 18.3708 34.5176L13.5702 29.6666C12.8457 28.9358 13.3686 27.7073 14.4081 27.7073L43.6716 27.701Z" fill="#00FFAD"/>
<path d="M31.5 0C48.8943 0 63 14.1057 63 31.5C63 48.8943 48.8943 63 31.5 63C14.1057 63 0 48.8943 0 31.5C0 14.1057 14.1057 0 31.5 0Z" fill="black"/>
<path fill-rule="evenodd" clip-rule="evenodd" d="M12.972 35.9022H33.7439C34.0043 35.9022 34.2512 36.0044 34.4307 36.1867L37.7169 39.4622C38.3229 40.0667 37.892 41.0978 37.03 41.0978H16.2581C15.9977 41.0978 15.7508 40.9956 15.5713 40.8133L12.2851 37.5378C11.6746 36.9333 12.11 35.9022 12.972 35.9022ZM12.2851 31.56L15.5713 28.2844C15.7553 28.1022 16.0022 28 16.2581 28H37.0255C37.8875 28 38.3229 29.0311 37.7124 29.6356L34.4307 32.9111C34.2467 33.0933 33.9998 33.1956 33.7439 33.1956H12.972C12.11 33.1956 11.6746 32.1644 12.2851 31.56ZM37.7124 45.44L34.4262 48.7156C34.2422 48.8978 33.9953 49 33.7394 49H12.972C12.11 49 11.6746 47.9689 12.2851 47.3644L15.5713 44.0889C15.7553 43.9067 16.0022 43.8044 16.2581 43.8044H37.0255C37.8875 43.8044 38.3229 44.8356 37.7124 45.44Z" fill="url(#paint0_linear)"/>
<path fill-rule="evenodd" clip-rule="evenodd" d="M47.73 28.1341L36.667 18.0365L34.3951 20.5257L32.8081 20.5981L32.7356 19.0111L31.1486 19.0835L31.0762 17.4964L29.4892 17.5688L29.4168 15.9818L27.8297 16.0542L27.7573 14.4672L30.7866 11.1483L57.0611 35.13L55.7989 36.5128L47.2251 28.6872L47.73 28.1341ZM49.7498 25.9218L49.245 26.4749L38.182 16.3774L40.4539 13.8882L40.3815 12.3012L38.7945 12.3736L38.7221 10.7865L37.1351 10.8589L37.0627 9.27189L35.4756 9.3443L35.4032 7.75726L33.8162 7.82966L30.7869 11.1486L57.0614 35.1302L58.3236 33.7474L49.7498 25.9218Z" fill="white"/>
<defs>
<linearGradient id="paint0_linear" x1="13.4801" y1="49.9036" x2="36.2861" y2="26.8675" gradientUnits="userSpaceOnUse">
<stop stop-color="#CB4EE8"/>
<stop offset="1" stop-color="#10F4B1"/>
</linearGradient>
</defs>
</svg>
